<?xml version="1.0" encoding="UTF-8" standalone="no"?>
<svg
   width="1920"
   height="1080"
   viewBox="0 0 1016 571.5"
   version="1.1"
   id="svg8"
   inkscape:version="1.2 (dc2aeda, 2022-05-15)"
   sodipodi:docname="plantilla_dashboard.svg"
   inkscape:export-filename="plantilla_dashboard.png"
   inkscape:export-xdpi="96.824997"
   inkscape:export-ydpi="96.824997"
   shape-rendering="crispEdges"
   xmlns:inkscape="http://www.inkscape.org/namespaces/inkscape"
   xmlns:sodipodi="http://sodipodi.sourceforge.net/DTD/sodipodi-0.dtd"
   xmlns="http://www.w3.org/2000/svg"
   xmlns:svg="http://www.w3.org/2000/svg"
   xmlns:rdf="http://www.w3.org/1999/02/22-rdf-syntax-ns#"
   xmlns:cc="http://creativecommons.org/ns#"
   xmlns:dc="http://purl.org/dc/elements/1.1/">
  <defs
     id="defs2">
    <rect
       x="122.46058"
       y="9.1637173"
       width="125.79284"
       height="33.322605"
       id="rect1298" />
  </defs>
  <sodipodi:namedview
     id="base"
     pagecolor="#ffffff"
     bordercolor="#666666"
     borderopacity="1.0"
     inkscape:pageopacity="0"
     inkscape:pageshadow="2"
     inkscape:zoom="0.96459612"
     inkscape:cx="731.91255"
     inkscape:cy="274.72638"
     inkscape:document-units="mm"
     inkscape:current-layer="layer1"
     inkscape:document-rotation="0"
     showgrid="false"
     units="px"
     showguides="false"
     inkscape:window-width="1839"
     inkscape:window-height="916"
     inkscape:window-x="42"
     inkscape:window-y="29"
     inkscape:window-maximized="0"
     showborder="false"
     inkscape:snap-global="false"
     scale-x="2"
     inkscape:pagecheckerboard="false"
     inkscape:showpageshadow="2"
     inkscape:deskcolor="#d1d1d1" />
  <metadata
     id="metadata5">
    <rdf:RDF>
      <cc:Work
         rdf:about="">
        <dc:format>image/svg+xml</dc:format>
        <dc:type
           rdf:resource="http://purl.org/dc/dcmitype/StillImage" />
      </cc:Work>
    </rdf:RDF>
  </metadata>
  <g
     inkscape:label="Capa 1"
     inkscape:groupmode="layer"
     id="layer1">
    <rect
       style="opacity:1;fill:#ffe680;fill-rule:evenodd;stroke-width:0.529167"
       id="rect50"
       width="12.603262"
       height="1.2603263"
       x="-11.342936"
       y="180.22664" />
    <rect
       style="opacity:1;fill:#d9e0f1;fill-opacity:1;stroke-width:0.331942"
       id="rect52"
       width="681.86218"
       height="23.717096"
       x="-0.27642822"
       y="45.615685" />
    <rect
       style="opacity:1;fill:#0033a0;fill-opacity:1;stroke-width:1.18614"
       id="rect892"
       width="681.86273"
       height="41.185661"
       x="-0.55319363"
       y="-40.575405"
       transform="matrix(0.99999919,0.00127334,0,-1,0,0)" />
    <g
       id="g1126"
       transform="matrix(0.18657621,0,0,0.18555305,16.980155,6.6104377)"
       style="display:inline;stroke-width:2.844"
       inkscape:label="IOM_logo">
      <path
         style="fill:#ffffff;fill-opacity:1;fill-rule:nonzero;stroke:none;stroke-width:2.844"
         d="M 147.59891,1.1199917 H 135.039 V 88.479345 h 12.55991 z"
         id="path1064" />
      <path
         style="fill:#ffffff;fill-opacity:1;fill-rule:nonzero;stroke:none;stroke-width:2.844"
         d="m 211.59843,77.919423 c -18.31986,0 -33.91975,-13.039904 -33.91975,-32.879757 0,-14.559892 9.83993,-33.279753 34.31975,-33.279753 22.71983,0 33.75975,18.319864 33.75975,32.799757 0,7.519944 -3.19998,17.039874 -8.71994,23.039829 -5.99995,6.479952 -16.07988,10.319924 -25.43981,10.319924 z M 258.55808,44.639669 C 258.55808,21.279842 240.47822,0 211.43843,0 c -29.83978,0 -46.71965,21.919838 -46.71965,45.039666 0,24.31982 18.71986,44.55967 46.07966,44.55967 28.55979,0 47.75964,-19.839853 47.75964,-44.959667 z"
         id="path1066" />
      <path
         style="fill:#ffffff;fill-opacity:1;fill-rule:nonzero;stroke:none;stroke-width:2.844"
         d="M 345.11744,1.1199917 316.15766,36.959726 287.11787,1.1199917 H 275.35796 V 88.479345 h 12.47991 V 20.479848 l 27.1998,33.75975 h 2.23998 l 26.8798,-33.75975 v 67.999497 h 12.55991 V 1.1199917 Z"
         id="path1068" />
      <path
         style="fill:#ffffff;fill-opacity:1;fill-rule:nonzero;stroke:none;stroke-width:2.844"
         d="m 22.159836,121.5191 c 0,2.87998 -0.239998,4.39997 -0.799994,5.43996 -0.799994,1.35999 -2.879979,3.83997 -7.679943,3.83997 -3.439975,0 -5.3599606,-1.19999 -6.6399511,-2.47998 -1.5199888,-1.43999 -1.8399864,-2.95998 -1.8399864,-6.79995 V 105.03922 H 0.87999348 v 16.47988 c 0,1.99999 0,5.35996 1.67998752,7.91994 2.3199829,3.67997 6.9599485,5.03996 11.119918,5.03996 3.439974,0 6.71995,-0.79999 9.35993,-3.11997 3.359975,-2.95998 3.359975,-7.03995 3.359975,-9.83993 v -16.47988 h -4.239968 z"
         id="path1070" />
      <path
         style="fill:#ffffff;fill-opacity:1;fill-rule:nonzero;stroke:none;stroke-width:2.844"
         d="M 61.119547,127.59905 41.119695,105.03922 h -3.439974 v 29.03979 h 3.99997 v -22.39984 l 19.839853,22.39984 h 3.679973 v -29.03979 h -4.07997 z"
         id="path1072" />
      <path
         style="fill:#ffffff;fill-opacity:1;fill-rule:nonzero;stroke:none;stroke-width:2.844"
         d="m 106.15921,116.95913 -9.919923,-11.91991 h -3.99997 v 29.03979 h 4.239968 v -22.63984 l 9.279935,11.27992 h 0.71999 l 9.19993,-11.27992 v 22.63984 h 4.23997 v -29.03979 h -3.91997 z"
         id="path1074" />
      <path
         style="fill:#ffffff;fill-opacity:1;fill-rule:nonzero;stroke:none;stroke-width:2.844"
         d="m 131.75902,134.07901 h 4.23997 v -29.03979 h -4.23997 z"
         id="path1076" />
      <path
         style="fill:#ffffff;fill-opacity:1;fill-rule:nonzero;stroke:none;stroke-width:2.844"
         d="m 162.3988,123.51909 h 5.67995 v 5.99995 c -2.79997,0.87999 -4.31996,1.27999 -6.47995,1.27999 -7.19994,0 -11.91991,-4.79996 -11.91991,-11.19992 0,-6.87994 5.59996,-11.27991 11.51992,-11.27991 1.67998,0 5.67995,0.24 10.55992,3.03998 v -4.23997 c -3.19998,-1.35999 -6.23996,-2.47999 -10.47992,-2.47999 -10.15993,0 -15.99989,7.51995 -15.99989,15.19989 0,6.55995 4.71997,14.63989 16.23988,14.63989 4.95997,0 8.55994,-1.35999 10.87992,-2.39998 v -12.23991 h -9.99992 z"
         id="path1078" />
      <path
         style="fill:#ffffff;fill-opacity:1;fill-rule:nonzero;stroke:none;stroke-width:2.844"
         d="m 193.75856,117.27913 c -1.19999,0.48 -3.51997,0.48 -4.15996,0.48 h -1.67999 v -9.19993 h 1.35999 c 2.55998,0 3.91997,0.15999 5.03996,0.63999 1.35999,0.64 2.23998,2.23998 2.23998,3.91997 0,1.59999 -0.79999,3.43998 -2.79998,4.15997 z m 2.15999,3.03998 c 3.27997,-1.27999 4.95996,-3.83997 4.95996,-7.19995 0,-2.95998 -1.43999,-5.83995 -4.63996,-7.19994 -1.83999,-0.8 -3.67998,-0.88 -5.03997,-0.88 h -7.43994 v 29.03979 h 4.15997 V 121.4391 h 1.11999 c 2.07998,0 3.51997,0 6.39995,3.67997 0.96,1.19999 5.11996,7.59995 6.15996,8.95994 h 5.03996 c -2.07999,-2.79998 -2.79998,-3.75998 -4.07997,-5.75996 -2.23998,-3.59997 -3.91997,-6.31995 -6.63995,-7.99994"
         id="path1080" />
      <path
         style="fill:#ffffff;fill-opacity:1;fill-rule:nonzero;stroke:none;stroke-width:2.844"
         d="m 220.95836,121.7591 4.47997,-10.47992 4.79996,10.47992 z m 3.03998,-16.87988 -12.7999,29.19979 h 4.39996 l 3.75998,-8.55994 h 12.5599 l 3.99997,8.55994 h 4.31997 l -13.2799,-29.19979 z"
         id="path1082" />
      <path
         style="fill:#ffffff;fill-opacity:1;fill-rule:nonzero;stroke:none;stroke-width:2.844"
         d="m 241.83821,108.71919 h 10.15992 v 25.35982 h 4.31997 v -25.35982 h 10.31992 v -3.67997 h -24.79981 z"
         id="path1084" />
      <path
         style="fill:#ffffff;fill-opacity:1;fill-rule:nonzero;stroke:none;stroke-width:2.844"
         d="m 275.99796,134.07901 h 4.23996 v -29.03979 h -4.23996 z"
         id="path1086" />
      <path
         style="fill:#ffffff;fill-opacity:1;fill-rule:nonzero;stroke:none;stroke-width:2.844"
         d="m 313.67768,127.11906 c -2.07999,2.23998 -5.43996,3.51997 -8.63994,3.51997 -6.23995,0 -11.51991,-4.39997 -11.51991,-10.95992 0,-4.87996 3.35997,-11.11991 11.59991,-11.11991 7.75994,0 11.51991,6.07995 11.51991,10.87992 0,2.55998 -1.11999,5.67995 -2.95997,7.67994 z m -8.71994,-22.47984 c -10.07992,0 -15.83988,7.27995 -15.83988,15.03989 0,8.07994 6.31995,14.79989 15.67988,14.79989 9.67993,0 16.15988,-6.63995 16.15988,-14.95989 0,-7.83994 -6.07995,-14.87989 -15.99988,-14.87989 z"
         id="path1088" />
      <path
         style="fill:#ffffff;fill-opacity:1;fill-rule:nonzero;stroke:none;stroke-width:2.844"
         d="m 352.63739,127.59905 -19.99985,-22.55983 h -3.43998 v 29.03979 h 3.99997 v -22.39984 l 19.83985,22.39984 h 3.67998 v -29.03979 h -4.07997 z"
         id="path1090" />
      <path
         style="fill:#ffffff;fill-opacity:1;fill-rule:nonzero;stroke:none;stroke-width:2.844"
         d="m 45.759661,36.559729 c 1.039992,0 1.759987,-0.799994 1.759987,-1.759987 0,-0.959993 -0.719995,-1.759987 -1.759987,-1.759987 -0.959993,0 -1.759987,0.799994 -1.759987,1.759987 0,0.959993 0.799994,1.759987 1.759987,1.759987 z"
         id="path1092" />
      <path
         style="fill:#ffffff;fill-opacity:1;fill-rule:nonzero;stroke:none;stroke-width:2.844"
         d="m 39.039711,47.19965 c 0.159999,0.08 0.239998,0.159999 0.399997,0.159999 0.319997,0 0.559996,-0.159999 0.719995,-0.479996 l 3.199976,-7.439945 0.159999,7.279946 -1.119992,9.199932 c -0.08,0.319997 0.159999,0.719994 0.479996,0.799994 0.08,0.08 0.159999,0.08 0.239999,0.08 0.399997,0 0.719994,-0.319997 0.799994,-0.719994 l 1.119991,-8.719936 h 1.519989 l 1.119992,8.719936 c 0.08,0.399997 0.399997,0.719994 0.799994,0.719994 0.08,0 0.159999,0 0.239998,-0.08 0.319998,-0.08 0.559996,-0.479997 0.479997,-0.799994 l -1.199992,-9.199932 0.239999,-7.279946 3.199976,7.439945 c 0,0 0,0 0,0 0,0.08 0,0.08 0,0.159999 0,0 0.08,0 0.08,0 0,0 0,0.08 0,0.08 0.08,0 0.08,0 0.08,0 0,0.08 0.08,0.08 0.08,0.08 0,0 0,0 0,0 0.08,0.08 0.08,0.08 0.159999,0.08 0,0 0,0 0,0 0,0 0.08,0 0.08,0.08 0,0 0.08,0 0.08,0 0,0 0.08,0 0.08,0 v 0 h 0.639995 l -0.959992,5.199962 c -0.08,0.319997 0,0.719994 0.239998,1.039992 0.159999,0.159999 0.319997,0.319998 0.559996,0.319998 v 2.239983 c 0,0.319998 0.239998,0.639995 0.639995,0.639995 0.319998,0 0.639995,-0.319997 0.639995,-0.639995 v -2.159984 0 c 0,0 0,0 0.08,0 h 0.399997 0.399997 v 0 c 0,0 0,0 0.08,0 v 0 2.159984 c 0,0.319998 0.239998,0.639995 0.639995,0.639995 0.319998,0 0.639996,-0.319997 0.639996,-0.639995 v -2.239983 c 0.159998,-0.08 0.399997,-0.159999 0.559995,-0.319998 0.239999,-0.319998 0.319998,-0.719995 0.239999,-1.039992 l -1.039993,-5.199962 h 0.639996 v 0 c 0.08,0 0.08,0 0.159998,0 0,0 0,0 0,0 0.08,-0.08 0.08,-0.08 0.08,-0.08 0.08,0 0.08,0 0.08,0 0,0 0.08,0 0.08,-0.08 0,0 0.08,0 0.08,0 0,0 0,0 0.08,-0.08 0,0 0,0 0,0 0,0 0.08,-0.08 0.08,-0.08 0,0 0,0 0,0 0,-0.08 0.08,-0.08 0.08,-0.159999 0,0 0,0 0,0 l 3.279976,-7.759943 0.639995,3.199977 c 0.08,0.479996 0.08,1.039992 -0.08,1.519988 L 58.07957,56.799579 h 4.159969 1.039992 4.159969 L 64.399523,43.839675 c -0.159999,-0.479996 -0.159999,-1.039992 -0.08,-1.519988 l 0.719994,-3.199977 2.479982,6.239954 c 0.159999,0.319998 0.399997,0.479996 0.719995,0.479996 0.08,0 0.239998,0 0.319997,-0.08 0.399997,-0.159999 0.559996,-0.559996 0.399997,-0.959993 L 66.15951,37.83972 c -0.159999,-0.319998 -0.399997,-0.479997 -0.719995,-0.479997 h -0.08 -1.199991 -0.879994 -1.039992 -0.879994 -1.27999 v 0 c -0.319998,0 -0.559996,0.159999 -0.719995,0.399997 l -3.359975,8.07994 H 52.63961 l -3.439974,-8.07994 c -0.08,-0.239998 -0.399997,-0.399997 -0.719995,-0.399997 h -2.71998 -2.71998 c -0.319997,0 -0.559996,0.159999 -0.719994,0.399997 l -3.519974,8.479937 c -0.159999,0.399998 -0.08,0.799995 0.239998,0.959993 z"
         id="path1094" />
      <path
         style="fill:#ffffff;fill-opacity:1;fill-rule:nonzero;stroke:none;stroke-width:2.844"
         d="m 62.719535,36.559729 c 0.959993,0 1.759987,-0.799994 1.759987,-1.759987 0,-0.959993 -0.799994,-1.759987 -1.759987,-1.759987 -0.959992,0 -1.759987,0.799994 -1.759987,1.759987 0,0.959993 0.799995,1.759987 1.759987,1.759987 z"
         id="path1096" />
      <path
         style="fill:#ffffff;fill-opacity:1;fill-rule:nonzero;stroke:none;stroke-width:2.844"
         d="m 54.319598,45.439663 c 0.719994,0 1.27999,-0.639995 1.27999,-1.35999 0,-0.719994 -0.559996,-1.27999 -1.27999,-1.27999 -0.719995,0 -1.35999,0.559996 -1.35999,1.27999 0,0.719995 0.639995,1.35999 1.35999,1.35999 z"
         id="path1098" />
      <path
         style="fill:#ffffff;fill-opacity:1;fill-rule:nonzero;stroke:none;stroke-width:2.844"
         d="m 62.399538,69.199487 c -3.199977,0.159999 -6.239954,0.879994 -9.039933,2.079985 -4.159969,-1.839986 -8.07994,-4.959963 -11.039918,-8.879934 h 20.079851 z m 0,13.119903 C 56.879579,82.079392 51.679617,80.559403 47.039652,77.999422 51.039622,74.23945 56.399582,71.839468 62.399538,71.51947 Z M 31.679765,62.399538 h 7.759943 c 2.879979,4.399967 6.799949,7.919941 11.039918,10.239924 -1.999985,1.119992 -3.919971,2.559981 -5.519959,4.07997 C 39.439708,73.279457 34.879742,68.319494 31.679765,62.399538 Z M 26.9598,46.719654 h 7.519945 c 0,0.08 0,0.159999 0,0.239998 0,4.479967 1.27999,8.799935 3.359975,12.719906 H 30.319775 C 28.559788,55.679588 27.359797,51.35962 26.9598,46.719654 Z m -10.239924,-2.71998 c 0,-0.319998 0,-0.799994 0,-1.119992 0,-4.559966 1.35999,-8.959933 3.599973,-12.799905 h 46.879653 c 2.239984,3.839972 3.679973,8.239939 3.679973,12.799905 0,0.08 0,0.08 0,0.159999 h -0.08 v 2.71998 h 20.15985 c 0,0.319998 0.08,0.879994 0.08,1.199991 0,4.559966 -1.43999,8.879934 -3.679973,12.719906 H 40.5597 c -2.319983,-3.839972 -3.679973,-8.15994 -3.679973,-12.719906 0,-0.08 0,-0.159999 0,-0.239998 v 0 l 0.08,-2.71998 z m -10.5599216,0 C 6.5599514,39.11971 7.7599425,34.399745 9.6799283,30.079777 H 17.59987 c -1.999986,3.919971 -3.279976,8.319939 -3.279976,12.799905 0,0.239999 0,0.799994 0,1.119992 z M 24.639817,12.879905 c 1.679988,1.679987 3.519974,3.119976 5.679958,4.239968 -4.239968,2.319983 -8.159939,5.919956 -11.039918,10.319924 H 11.039918 C 14.319894,21.359842 18.95986,16.399879 24.639817,12.879905 Z m 17.999867,7.759942 v 6.79995 H 22.159836 c 2.959978,-3.919971 6.879949,-7.039948 10.959919,-8.879934 2.959978,1.199991 6.159954,1.919985 9.519929,2.079984 z m 0,-13.1999021 V 18.319864 C 36.39973,18.079866 30.799772,15.519885 26.719802,11.679913 31.519767,9.039933 36.879727,7.5999437 42.639684,7.4399449 Z m 2.71998,13.1199031 c 3.199976,-0.159999 6.239954,-0.879994 9.039933,-1.999985 4.159969,1.839986 7.999941,4.959963 10.959919,8.879934 H 45.359664 Z m 0,-13.1199031 c 5.519959,0.3199976 10.719921,1.8399864 15.279887,4.3999671 -3.999971,3.679973 -9.359931,6.079955 -15.279887,6.479952 z M 75.999437,27.439797 h -7.679943 c -2.959978,-4.399968 -6.879949,-7.999941 -11.039918,-10.319924 1.999985,-1.119992 3.839971,-2.479981 5.519959,-4.07997 5.43996,3.519974 10.079925,8.479938 13.199902,14.399894 z m 4.799964,15.599884 h -7.599943 v -0.159999 c 0,-4.479966 -1.199991,-8.879934 -3.279976,-12.799905 h 7.439945 c 1.839986,3.999971 2.959978,8.399938 3.439974,12.959904 z m 20.719849,2.71998 c -0.32,4.959963 -1.59999,9.679928 -3.519976,13.919897 h -7.919941 c 2.079984,-3.919971 3.279975,-8.239939 3.279975,-12.719906 0,-0.239998 0,-0.799994 0,-1.199991 z M 83.119384,76.95943 c -1.679987,-1.679988 -3.599973,-3.119977 -5.679958,-4.319968 4.15997,-2.319983 8.079941,-5.839957 11.039919,-10.239924 h 8.239939 c -3.279976,5.999955 -7.999941,11.039918 -13.5999,14.559892 z M 65.119518,69.199487 v -6.799949 h 20.399849 c -2.959979,3.919971 -6.79995,7.039948 -10.959919,8.879934 -2.879979,-1.199991 -6.079955,-1.919986 -9.43993,-2.079985 z m 0,13.199903 V 71.439471 c 6.159954,0.319997 11.759913,2.799979 15.919882,6.71995 -4.799965,2.559981 -10.239924,4.07997 -15.919882,4.239969 z M 107.6792,42.239687 c 0,-13.839897 -6.31995,-29.359782 -16.639874,-40.8796971 h -9.279932 c 2.479982,2.159984 5.839957,6.079955 5.839957,6.079955 8.879934,9.9199261 14.079899,23.2798271 14.079899,35.1997391 0,0.159999 0,0.239998 -0.08,0.399997 H 86.879356 C 84.639373,19.759854 66.079511,1.3599899 43.519678,1.3599899 19.519855,1.3599899 0,21.999837 0,47.519648 0,61.439545 6.3199532,76.95943 16.719876,88.479345 h 9.199932 C 23.519826,86.239361 20.159851,82.39939 20.159851,82.39939 11.279916,72.479463 6.079955,59.119562 6.079955,47.19965 c 0,-0.159998 0,-0.319997 0,-0.479996 h 14.719891 c 2.239983,23.359827 20.799846,41.759691 43.359679,41.759691 24.079821,0 43.519675,-20.719847 43.519675,-46.239658 z"
         id="path1100" />
    </g>
    <rect
       y="365.62671"
       x="-0.3099494"
       height="14.991761"
       width="677.93616"
       id="rect52-8"
       style="opacity:1;fill:#d9e0f1;fill-opacity:1;stroke-width:0.322468" />
    <rect
       style="opacity:1;fill:#ffffff;fill-opacity:1;stroke:#000000;stroke-width:0.529167;stroke-opacity:0"
       id="rect1056"
       width="0.52856767"
       height="18.987658"
       x="681.58575"
       y="41.619785" />
    <circle
       id="path1058"
       style="fill:#ffffff;stroke:#000000;stroke-width:0.529167"
       cx="209.21416"
       cy="-0.63016313"
       r="0.16656393" />
    <circle
       id="path1060"
       style="fill:#ffffff;stroke:#000000;stroke-width:0.529167"
       cx="250.80492"
       cy="40.330441"
       r="0.16656393" />
    <circle
       id="path1062"
       style="fill:#ffffff;stroke:#000000;stroke-width:0.529167"
       cx="676.79517"
       cy="40.960602"
       r="0.16656393" />
    <rect
       y="38.380344"
       x="-0.27642822"
       height="12.325117"
       width="681.86218"
       id="rect52-6"
       style="opacity:1;fill:#8099d0;fill-opacity:1;stroke-width:0.331942" />
    <path
       style="fill:#8099d0;fill-opacity:1;stroke:#000000;stroke-width:0.529167px;stroke-linecap:butt;stroke-linejoin:miter;stroke-opacity:0"
       d="M 209.40958,-2.710172 270.7002,33.914874 681.58575,35.51116 V -1.4054223 Z"
       id="path1113" />
    <rect
       y="69.337936"
       x="-0.73959911"
       height="296.04355"
       width="63.719959"
       id="rect870"
       style="fill:#0033a0;fill-opacity:1;fill-rule:evenodd;stroke-width:0.353909"
       inkscape:export-xdpi="96.824997"
       inkscape:export-ydpi="96.824997" />
    <g
       id="g2257"
       transform="matrix(1.376908,0,0,1.0102637,-92.704334,-97.830392)"
       style="display:inline;stroke-width:1.69575">
      <path
         style="opacity:1;fill:#ffffff;stroke:#ffffff;stroke-width:0.448665px;stroke-linecap:butt;stroke-linejoin:miter;stroke-opacity:1"
         d="m 136.79567,103.90755 c 0,23.3602 0,23.3602 0,23.3602"
         id="path913-5" />
      <text
         xml:space="preserve"
         transform="matrix(0.47194713,0,0,0.65787281,84.66415,99.545139)"
         id="text1296"
         style="font-style:normal;font-variant:normal;font-weight:normal;font-stretch:normal;font-size:13.3333px;line-height:1.25;font-family:'Gill Sans';-inkscape-font-specification:'Gill Sans';white-space:pre;shape-inside:url(#rect1298);display:inline;fill:#ffffff;stroke-width:2.14767"><tspan
           x="122.46094"
           y="20.834234"
           id="tspan1815"><tspan
             style="stroke-width:1.69575"
             id="tspan1813">GLOBAL DATA
</tspan></tspan><tspan
           x="122.46094"
           y="37.500859"
           id="tspan1819"><tspan
             style="stroke-width:1.69575"
             id="tspan1817">INSTITUTE</tspan></tspan></text>
    </g>
  </g>
</svg>
