<?xml version="1.0" encoding="UTF-8" standalone="no"?>
<svg
   sodipodi:docname="report_template.svg"
   inkscape:version="1.2 (dc2aeda, 2022-05-15)"
   id="svg8"
   version="1.1"
   viewBox="0 0 215.9 279.4"
   height="11in"
   width="8.5in"
   xml:space="preserve"
   inkscape:export-filename="template.pdf"
   inkscape:export-xdpi="96.825"
   inkscape:export-ydpi="96.825"
   xmlns:inkscape="http://www.inkscape.org/namespaces/inkscape"
   xmlns:sodipodi="http://sodipodi.sourceforge.net/DTD/sodipodi-0.dtd"
   xmlns="http://www.w3.org/2000/svg"
   xmlns:svg="http://www.w3.org/2000/svg"
   xmlns:rdf="http://www.w3.org/1999/02/22-rdf-syntax-ns#"
   xmlns:cc="http://creativecommons.org/ns#"
   xmlns:dc="http://purl.org/dc/elements/1.1/"><defs
     id="defs2"><rect
       x="122.46058"
       y="9.1637169"
       width="125.79284"
       height="33.322607"
       id="rect1298" /><rect
       x="129.95817"
       y="9.1637169"
       width="139.12188"
       height="33.322607"
       id="rect1242" /><rect
       x="609.48123"
       y="157.26121"
       width="148.9843"
       height="159.51854"
       id="rect51899" /><rect
       x="440.18089"
       y="157.26121"
       width="141.45984"
       height="83.521497"
       id="rect51893" /><rect
       x="440.77765"
       y="119.04214"
       width="314.49647"
       height="20.10847"
       id="rect45568" /><rect
       x="442.38633"
       y="118.2378"
       width="309.67043"
       height="20.10847"
       id="rect45554" /><rect
       x="248.37075"
       y="982.96997"
       width="1.314131"
       height="17.083703"
       id="rect37614" /><rect
       x="49.027935"
       y="575.79319"
       width="331.61975"
       height="430.70024"
       id="rect28322" /><rect
       x="64.322729"
       y="354.83527"
       width="59.374827"
       height="42.41059"
       id="rect27741" /><rect
       x="62.909043"
       y="352.71474"
       width="52.306395"
       height="58.667984"
       id="rect27735" /><rect
       x="209.427"
       y="360.95359"
       width="1.2319235"
       height="20.9427"
       id="rect27619" /><rect
       x="129.35197"
       y="359.72167"
       width="242.68893"
       height="54.204635"
       id="rect27593" /><rect
       x="150.84219"
       y="586.16748"
       width="25.140366"
       height="34.402603"
       id="rect27330" /><rect
       x="92.622398"
       y="586.16748"
       width="71.451569"
       height="18.524473"
       id="rect27324" /><rect
       x="59.09779"
       y="346.57346"
       width="316.52374"
       height="33.054695"
       id="rect16913" /><rect
       x="46.80851"
       y="122.34043"
       width="338.29788"
       height="860.63831"
       id="rect9453" /><rect
       x="49.295776"
       y="104.22535"
       width="333.80283"
       height="880.28168"
       id="rect9437" /><rect
       x="47.887325"
       y="108.4507"
       width="333.80283"
       height="876.05634"
       id="rect9421" /><rect
       x="47.887325"
       y="105.6338"
       width="332.39438"
       height="880.28168"
       id="rect9337" /><rect
       x="431.03448"
       y="134.48276"
       width="332.75861"
       height="331.03448"
       id="rect8051" /><rect
       x="434.48276"
       y="72.413795"
       width="325.86206"
       height="513.79309"
       id="rect7951" /><rect
       x="46.341461"
       y="125.60976"
       width="326.82928"
       height="702.43903"
       id="rect7917" /><rect
       x="191.5493"
       y="132.39436"
       width="2.8169014"
       height="47.887325"
       id="rect2442" /><rect
       x="50.704224"
       y="70.422539"
       width="333.95621"
       height="27.429926"
       id="rect2386" /><rect
       id="rect868"
       height="12.412551"
       width="21.558641"
       y="245.96451"
       x="147.97067" /><rect
       id="rect853"
       height="14.17867"
       width="26.890581"
       y="211.21329"
       x="111.47368" /><rect
       id="rect867"
       height="27.260101"
       width="63.740528"
       y="34.075127"
       x="25.255682" /><rect
       x="46.341461"
       y="125.60976"
       width="326.82928"
       height="702.43903"
       id="rect7917-3" /><clipPath
       clipPathUnits="userSpaceOnUse"
       id="clipPath12525"><path
         d="M 51.36,502.27 H 482.98 V 737.04 H 51.36 Z"
         clip-rule="evenodd"
         id="path12523" /></clipPath><clipPath
       clipPathUnits="userSpaceOnUse"
       id="clipPath12535"><path
         d="M 49.44,500.23 H 485.02 V 738.96 H 49.44 Z"
         clip-rule="evenodd"
         id="path12533" /></clipPath><rect
       x="129.35197"
       y="359.72168"
       width="244.10262"
       height="61.273068"
       id="rect27593-9" /><rect
       x="129.35197"
       y="359.72168"
       width="244.10262"
       height="78.944147"
       id="rect27593-4" /><rect
       x="64.322731"
       y="354.83527"
       width="59.374828"
       height="42.410591"
       id="rect27741-6" /><rect
       x="64.322731"
       y="354.83527"
       width="59.374828"
       height="42.410591"
       id="rect27741-5" /><rect
       x="440.77765"
       y="119.04214"
       width="314.49646"
       height="20.108471"
       id="rect45568-3" /><rect
       x="440.77765"
       y="119.04214"
       width="314.49646"
       height="20.108471"
       id="rect45568-6" /><rect
       x="440.77765"
       y="119.04214"
       width="314.49646"
       height="52.208332"
       id="rect45568-6-9" /><rect
       x="440.77765"
       y="119.04214"
       width="312.23912"
       height="49.453864"
       id="rect45568-6-99" /><rect
       x="440.18088"
       y="157.26122"
       width="148.98431"
       height="91.045957"
       id="rect51893-8" /><rect
       x="440.18088"
       y="157.26122"
       width="148.98431"
       height="91.045959"
       id="rect51893-8-9" /><rect
       x="440.18088"
       y="157.26122"
       width="148.98431"
       height="91.045959"
       id="rect51893-8-9-8" /><rect
       x="609.4812"
       y="157.26122"
       width="148.9843"
       height="159.51854"
       id="rect51899-8" /><rect
       x="609.4812"
       y="157.26122"
       width="148.9843"
       height="159.51854"
       id="rect51899-3" /><rect
       x="609.4812"
       y="157.26122"
       width="148.9843"
       height="159.51854"
       id="rect51899-4" /><pattern
       id="EMFhbasepattern"
       patternUnits="userSpaceOnUse"
       width="6"
       height="6"
       x="0"
       y="0" /></defs><sodipodi:namedview
     inkscape:window-maximized="0"
     inkscape:window-y="25"
     inkscape:window-x="8"
     inkscape:window-height="916"
     inkscape:window-width="1841"
     inkscape:showpageshadow="false"
     borderlayer="true"
     units="in"
     inkscape:snap-page="true"
     inkscape:snap-text-baseline="true"
     inkscape:snap-smooth-nodes="true"
     showgrid="false"
     inkscape:document-rotation="0"
     inkscape:current-layer="layer1"
     inkscape:document-units="in"
     inkscape:cy="268.67746"
     inkscape:cx="209.95014"
     inkscape:zoom="0.68111408"
     inkscape:pageshadow="2"
     inkscape:pageopacity="0"
     borderopacity="1.0"
     bordercolor="#666666"
     pagecolor="#e3e3e3"
     id="base"
     inkscape:pagecheckerboard="0"
     inkscape:deskcolor="#e3e3e3"><sodipodi:guide
       id="guide843"
       orientation="959.95838,0"
       position="12.705501,266.6945"
       inkscape:locked="false" /><sodipodi:guide
       id="guide845"
       orientation="0,719.95844"
       position="12.705501,12.705511"
       inkscape:locked="false" /><sodipodi:guide
       id="guide847"
       orientation="-959.95838,0"
       position="203.1945,12.705511"
       inkscape:locked="false" /><sodipodi:guide
       id="guide849"
       orientation="0,-719.95844"
       position="106.53301,266.72539"
       inkscape:locked="false" /><sodipodi:guide
       id="guide889"
       orientation="913.67967,0"
       position="12.705684,260.57221"
       inkscape:locked="false" /><sodipodi:guide
       id="guide891"
       orientation="0,335.97851"
       position="12.705684,18.827796"
       inkscape:locked="false" /><sodipodi:guide
       id="guide893"
       orientation="-913.67967,0"
       position="101.6,18.827796"
       inkscape:locked="false" /><sodipodi:guide
       id="guide895"
       orientation="0,-335.97851"
       position="101.6,260.57221"
       inkscape:locked="false" /><sodipodi:guide
       id="guide897"
       orientation="913.67967,0"
       position="114.3,260.57221"
       inkscape:locked="false" /><sodipodi:guide
       id="guide899"
       orientation="0,335.97852"
       position="114.3,18.827796"
       inkscape:locked="false" /><sodipodi:guide
       id="guide901"
       orientation="-913.67967,0"
       position="203.19431,18.827796"
       inkscape:locked="false" /><sodipodi:guide
       id="guide903"
       orientation="0,-335.97852"
       position="34.47601,260.55846"
       inkscape:locked="false" /></sodipodi:namedview><metadata
     id="metadata5"><rdf:RDF><cc:Work
         rdf:about=""><dc:format>image/svg+xml</dc:format><dc:type
           rdf:resource="http://purl.org/dc/dcmitype/StillImage" /></cc:Work></rdf:RDF></metadata><g
     id="layer1"
     inkscape:groupmode="layer"
     inkscape:label="Capa 1"
     style="display:inline"><rect
       y="0.19205672"
       x="0.0097917849"
       height="278.60367"
       width="215.90001"
       id="rect839"
       style="display:inline;fill:#ffffff;stroke:#ffffff;stroke-width:0.264999;stroke-linejoin:miter;stroke-miterlimit:4;stroke-dasharray:none;stroke-opacity:1" /><g
       id="g1822"
       transform="translate(41.523313,31.557515)"><g
         inkscape:groupmode="layer"
         id="layer7"
         inkscape:label="Logo"
         sodipodi:insensitive="true"><g
           transform="matrix(0.01321927,0,0,-0.01534926,0.88989563,12.881203)"
           id="g938"
           style="stroke-width:2.45715"><path
             id="path940"
             style="fill:#ffffff;fill-opacity:1;fill-rule:nonzero;stroke:none;stroke-width:2.45715"
             d="m 795.66,338.992 c 0,-74.402 58.567,-123.367 127.207,-123.367 35.039,0 72.969,14.395 95.523,38.875 20.65,22.57 32.65,58.086 32.65,86.418 0,54.238 -41.29,122.891 -126.735,122.891 -91.684,0 -128.645,-70.09 -128.645,-124.817 z m 303.38,1.438 c 0,-94.082 -72,-168.489 -179.056,-168.489 -102.722,0 -172.808,75.84 -172.808,167.051 0,86.887 63.355,168.977 175.215,168.977 108.959,0 176.649,-79.688 176.649,-167.539" /><path
             id="path942"
             style="fill:#ffffff;fill-opacity:1;fill-rule:nonzero;stroke:none;stroke-width:2.45715"
             d="m 1199.33,176.258 h -47.04 v 327.394 h 47.04 V 176.258" /><path
             id="path944"
             style="fill:#ffffff;fill-opacity:1;fill-rule:nonzero;stroke:none;stroke-width:2.45715"
             d="m 1584.8,176.258 h -47.05 V 431.16 L 1436.94,304.434 h -8.63 L 1326.53,431.16 V 176.258 h -47.04 v 327.394 h 44.17 l 108.96,-134.414 108.49,134.414 h 43.69 V 176.258" /><path
             id="path946"
             style="fill:#ffffff;fill-opacity:1;fill-rule:nonzero;stroke:none;stroke-width:2.45715"
             d="m 614.305,271.074 h -37.153 c 9.668,18.192 15.532,38.543 15.532,59.598 0,1.035 -0.024,3.683 -0.051,5.43 h 38.027 c -1.711,-23.125 -7.402,-45.059 -16.355,-65.028 z M 544.598,190.43 c -7.844,7.781 -16.797,14.539 -26.621,20.058 19.668,10.742 37.996,27.539 51.589,47.91 h 38.489 C 592.848,230.293 570.914,206.824 544.598,190.43 Z m -84.094,-25.383 v 50.996 c 28.984,-1.316 55.066,-13.027 74.297,-31.277 -22.434,-12.004 -47.625,-19.036 -74.297,-19.719 z m 95.449,93.351 c -13.816,-18.3 -31.98,-32.902 -51.34,-41.418 -13.601,5.645 -28.484,9.043 -44.109,9.7 v 31.718 z m -210.312,12.676 c -10.555,17.879 -16.993,38.328 -16.993,59.598 0,0.266 0,0.566 -0.007,0.891 h 0.007 l 0.207,12.675 h -94.453 c -0.058,1.61 -0.109,4.051 -0.109,5.43 0,21.277 6.465,41.727 17.051,59.609 h 218.894 c 10.586,-17.882 17.051,-38.332 17.051,-59.609 0,-0.254 0,-0.566 -0.008,-0.891 h -0.117 l -0.195,-12.675 h 94.433 c 0.039,-1.602 0.098,-4.043 0.098,-5.43 0,-21.27 -6.465,-41.719 -17.039,-59.598 z M 447.738,226.59 c -14.968,-0.82 -29.234,-4.168 -42.332,-9.61 -19.343,8.528 -37.492,23.125 -51.277,41.418 h 93.609 z m 0,-61.395 c -25.75,1.297 -50.039,8.504 -71.699,20.371 18.75,17.43 43.867,28.692 71.699,30.372 z m -143.465,93.203 h 36.18 c 13.598,-20.371 31.926,-37.168 51.594,-47.91 -9.453,-5.304 -18.113,-11.758 -25.742,-19.172 -25.696,16.34 -47.102,39.485 -62.032,67.082 z m -22.226,73.165 h 35.305 c -0.012,-0.333 -0.012,-0.637 -0.012,-0.891 0,-21.055 5.859,-41.406 15.539,-59.598 h -34.863 c -8.371,18.66 -13.887,39.031 -15.969,60.489 z m -96.902,12.675 c 1.707,23.125 7.41,45.067 16.367,65.039 h 37.144 c -9.676,-18.195 -15.523,-38.554 -15.523,-59.609 0,-1.027 0.019,-3.672 0.047,-5.43 z m 86.062,145.672 c 7.844,-7.773 16.797,-14.531 26.609,-20.047 -19.664,-10.742 -37.996,-27.539 -51.582,-47.91 H 207.75 c 15.203,28.094 37.141,51.57 63.457,67.957 z m 84.109,-36.238 v -31.719 h -95.464 c 13.816,18.289 31.98,32.891 51.328,41.414 13.609,-5.652 28.496,-9.051 44.136,-9.695 z m 0,61.629 v -50.985 c -28.972,1.317 -55.086,13.008 -74.293,31.278 22.43,11.992 47.618,19.023 74.293,19.707 z m 12.786,-61.551 c 14.968,0.828 29.238,4.18 42.324,9.617 19.347,-8.523 37.5,-23.125 51.308,-41.414 h -93.632 z m 0,61.406 c 25.742,-1.301 50.019,-8.515 71.679,-20.371 -18.742,-17.422 -43.847,-28.672 -71.679,-30.363 z m 143.449,-93.203 h -36.203 c -13.575,20.36 -31.883,37.168 -51.571,47.899 9.461,5.312 18.114,11.769 25.743,19.179 25.691,-16.347 47.097,-39.48 62.031,-67.078 z m 22.226,-73.176 h -35.351 c 0.008,0.332 0.008,0.645 0.008,0.891 0,21.055 -5.848,41.414 -15.508,59.609 h 34.89 c 8.364,-18.664 13.879,-39.043 15.961,-60.5 z m 47.774,195.051 h -43.078 c 11.261,-10.383 26.965,-28.469 26.965,-28.469 41.57,-46.453 65.769,-108.808 65.769,-164.531 0,-0.683 -0.019,-1.367 -0.027,-2.051 h -68.938 c -10.469,108.899 -97.176,195.051 -202.519,195.051 -112.395,0 -203.496,-96.719 -203.496,-216.047 0,-64.773 29.699,-137.254 78,-191.269 h 43.113 c -11.25,10.383 -26.973,28.476 -26.973,28.476 -41.562,46.446 -65.769,108.821 -65.769,164.524 0,0.683 0.015,1.367 0.027,2.051 h 68.938 C 264.039,222.664 350.77,136.512 456.09,136.512 c 112.394,0 203.496,96.73 203.496,216.054 0,64.778 -29.695,137.258 -78.035,191.262" /><path
             id="path948"
             style="fill:#ffffff;fill-opacity:1;fill-rule:nonzero;stroke:none;stroke-width:2.45715"
             d="m 367.691,380.945 c 4.903,0 8.875,3.938 8.875,8.801 0,4.871 -3.972,8.817 -8.875,8.817 -4.914,0 -8.886,-3.946 -8.886,-8.817 0,-4.863 3.972,-8.801 8.886,-8.801" /><path
             id="path950"
             style="fill:#ffffff;fill-opacity:1;fill-rule:nonzero;stroke:none;stroke-width:2.45715"
             d="m 464.547,375.684 c -0.598,1.367 -1.942,2.246 -3.438,2.246 h -0.207 -4.558 c 0,0 0,0 -0.008,0 h -0.031 -14.364 -4.601 -0.227 c -1.511,0 -2.871,-0.899 -3.457,-2.297 l -16.531,-39.344 h -4.57 -2.129 -0.117 -2.852 -2.227 -4.578 l -16.625,39.356 c -0.586,1.386 -1.941,2.285 -3.457,2.285 h -4.8 -15.786 -6.238 c -1.523,0 -2.898,-0.918 -3.476,-2.336 l -13.899,-34.168 c -0.777,-1.914 0.141,-4.102 2.055,-4.883 0.469,-0.188 0.945,-0.273 1.414,-0.273 1.476,0 2.883,0.878 3.469,2.332 l 12.937,29.015 0.07,-34.785 -7.355,-46.211 c -0.332,-2.043 1.066,-3.965 3.105,-4.289 0.207,-0.039 0.403,-0.047 0.594,-0.047 1.809,0 3.41,1.317 3.703,3.153 l 6.907,43.351 h 7.8 l 6.907,-43.351 c 0.293,-1.836 1.89,-3.153 3.699,-3.153 0.195,0 0.39,0.008 0.597,0.047 2.04,0.324 3.438,2.246 3.114,4.289 l -7.356,46.152 1.25,34.844 15.434,-36.523 c 0,-0.02 0.019,-0.039 0.027,-0.059 0.078,-0.187 0.176,-0.371 0.285,-0.539 0.039,-0.047 0.078,-0.098 0.118,-0.156 0.093,-0.125 0.195,-0.254 0.3,-0.371 0.047,-0.047 0.086,-0.086 0.137,-0.137 0.129,-0.125 0.273,-0.234 0.422,-0.34 0.027,-0.019 0.059,-0.051 0.086,-0.07 0.187,-0.117 0.371,-0.223 0.566,-0.313 0.059,-0.019 0.117,-0.039 0.176,-0.058 0.156,-0.059 0.313,-0.106 0.469,-0.145 0.058,-0.019 0.129,-0.031 0.195,-0.051 0.215,-0.039 0.442,-0.066 0.676,-0.066 h 0.008 l -3.094,-28.281 c -0.219,-1.106 0.066,-2.238 0.777,-3.106 0.715,-0.871 1.77,-1.367 2.895,-1.367 l 2.519,-0.012 -0.429,-10.996 c -0.071,-1.718 1.277,-3.172 2.996,-3.242 0.039,0 0.078,0 0.129,0 1.668,0 3.047,1.32 3.113,3 l 0.441,11.211 1.368,0.008 1.367,-0.008 0.437,-11.211 c 0.071,-1.68 1.453,-3 3.117,-3 0.047,0 0.086,0 0.125,0 1.731,0.07 3.067,1.524 3,3.242 l -0.429,10.996 2.515,0.012 c 1.125,0 2.18,0.496 2.895,1.367 0.711,0.868 0.992,2 0.777,3.106 l -3.094,28.281 h 0.008 c 0.239,0 0.461,0.027 0.688,0.066 0.058,0.02 0.125,0.032 0.183,0.051 0.168,0.039 0.325,0.086 0.469,0.145 0.059,0.019 0.117,0.039 0.176,0.058 0.195,0.09 0.391,0.196 0.566,0.313 0.032,0.019 0.059,0.051 0.098,0.07 0.148,0.106 0.281,0.215 0.41,0.34 0.051,0.051 0.098,0.098 0.137,0.148 0.105,0.106 0.207,0.235 0.305,0.36 0.039,0.058 0.078,0.109 0.117,0.168 0.105,0.156 0.191,0.32 0.269,0.508 0.024,0.027 0.032,0.047 0.051,0.078 l 16.035,38.183 4.016,-19.523 -17.617,-67.469 h 47.222 l -17.625,67.469 4.024,19.582 13.398,-30.82 c 0.617,-1.407 1.992,-2.246 3.438,-2.246 0.5,0 1.007,0.097 1.496,0.312 1.89,0.82 2.761,3.027 1.941,4.93 l -14.863,34.172" /><path
             id="path952"
             style="fill:#ffffff;fill-opacity:1;fill-rule:nonzero;stroke:none;stroke-width:2.45715"
             d="m 449.48,380.945 c 4.903,0 8.875,3.938 8.875,8.801 0,4.871 -3.972,8.817 -8.875,8.817 -4.914,0 -8.886,-3.946 -8.886,-8.817 0,-4.863 3.972,-8.801 8.886,-8.801" /><path
             id="path954"
             style="fill:#ffffff;fill-opacity:1;fill-rule:nonzero;stroke:none;stroke-width:2.45715"
             d="m 409.195,339.258 c 3.672,0 6.653,2.949 6.653,6.601 0,3.653 -2.981,6.61 -6.653,6.61 -3.691,0 -6.668,-2.957 -6.668,-6.61 0,-3.652 2.977,-6.601 6.668,-6.601" /><path
             id="path956"
             style="fill:#ffffff;fill-opacity:1;fill-rule:nonzero;stroke:none;stroke-width:2.45715"
             d="m 1704.46,431.551 c 0,-32.539 26.89,-53.953 58.43,-53.953 16.09,0 33.51,6.297 43.87,17 9.49,9.875 14.99,25.41 14.99,37.793 0,23.73 -18.96,53.75 -58.2,53.75 -42.12,0 -59.09,-30.645 -59.09,-54.59 z m 139.34,0.637 c 0,-41.153 -33.07,-73.704 -82.24,-73.704 -47.18,0 -79.38,33.184 -79.38,73.067 0,38.008 29.12,73.906 80.48,73.906 50.06,0 81.14,-34.844 81.14,-73.269" /><path
             id="path958"
             style="fill:#ffffff;fill-opacity:1;fill-rule:nonzero;stroke:none;stroke-width:2.45715"
             d="m 2016.42,360.379 h -18 l -97.68,110.234 V 360.379 h -19.72 v 143.195 h 16.93 l 98.55,-111.066 v 111.066 h 19.92 V 360.379" /><path
             id="path960"
             style="fill:#ffffff;fill-opacity:1;fill-rule:nonzero;stroke:none;stroke-width:2.45715"
             d="m 2192.27,422.313 c 0,-13.848 0,-33.797 -16.49,-48.282 -13.07,-11.347 -29.36,-15.547 -46.07,-15.547 -20.56,0 -43.27,6.934 -54.83,24.993 -8.15,12.597 -8.15,29.187 -8.15,38.836 v 81.261 h 21 v -81.261 c 0,-18.887 1.71,-26.239 9.21,-33.594 6.21,-6.289 15.85,-11.961 32.77,-11.961 23.57,0 33.85,11.961 37.71,18.894 2.78,5.039 4.07,12.598 4.07,26.661 v 81.261 h 20.78 v -81.261" /><path
             id="path962"
             style="fill:#ffffff;fill-opacity:1;fill-rule:nonzero;stroke:none;stroke-width:2.45715"
             d="m 1823.25,176.883 h -20.99 v 111.484 l -44.99,-55.429 h -3.86 l -45.42,55.429 V 176.883 H 1687 v 143.195 h 19.71 l 48.63,-58.789 48.42,58.789 h 19.49 V 176.883" /><path
             id="path964"
             style="fill:#ffffff;fill-opacity:1;fill-rule:nonzero;stroke:none;stroke-width:2.45715"
             d="m 1901.41,176.883 h -20.99 v 143.195 h 20.99 V 176.883" /><path
             id="path966"
             style="fill:#ffffff;fill-opacity:1;fill-rule:nonzero;stroke:none;stroke-width:2.45715"
             d="m 2075.8,186.746 c -11.15,-4.824 -29.14,-11.758 -53.57,-11.758 -56.55,0 -79.9,39.688 -79.9,72.227 0,37.793 28.92,74.746 79.05,74.746 20.57,0 35.77,-5.664 51.42,-12.168 v -20.996 c -24,13.644 -43.71,14.902 -51.85,14.902 -29.14,0 -56.77,-21.414 -56.77,-55.215 0,-31.707 23.35,-55.429 58.7,-55.429 10.71,0 18,1.886 31.92,6.289 v 29.824 h -28.07 v 18.047 h 49.07 v -60.469" /><path
             id="path968"
             style="fill:#ffffff;fill-opacity:1;fill-rule:nonzero;stroke:none;stroke-width:2.45715"
             d="m 2143.67,302.645 v -45.137 h 8.14 c 3.22,0 14.56,0 20.35,2.101 9.86,3.778 13.93,12.801 13.93,20.575 0,8.183 -4.29,15.957 -11.14,19.101 -5.35,2.52 -12.21,3.36 -24.86,3.36 z m 15.85,17.433 c 6.85,0 15.86,-0.637 25.07,-4.621 15.64,-6.504 22.92,-20.781 22.92,-35.273 0,-16.582 -8.57,-29.18 -24.42,-35.274 13.28,-8.613 21.42,-21.836 32.56,-39.472 6.21,-9.864 9.85,-14.696 19.92,-28.555 h -24.84 c -4.93,6.933 -25.28,38.215 -30,44.297 -14.36,18.066 -21.43,18.066 -31.5,18.066 h -5.56 v -62.363 h -20.78 v 143.195 h 36.63" /><path
             id="path970"
             style="fill:#ffffff;fill-opacity:1;fill-rule:nonzero;stroke:none;stroke-width:2.45715"
             d="m 2347.16,237.566 -23.56,51.856 -21.86,-51.856 z m 49.49,-60.683 h -21.42 l -19.5,42.207 h -62.13 l -18.42,-42.207 h -21.42 l 62.77,144.035 h 14.77 l 65.35,-144.035" /><path
             id="path972"
             style="fill:#ffffff;fill-opacity:1;fill-rule:nonzero;stroke:none;stroke-width:2.45715"
             d="m 2537.81,288.164 c -15.42,8.602 -32.77,14.277 -50.56,14.277 -35.35,0 -57.84,-25.617 -57.84,-54.386 0,-26.66 19.28,-53.953 58.06,-53.953 18.41,0 36.41,6.082 51.84,15.957 v -22.473 c -16.92,-9.023 -34.49,-12.598 -53.13,-12.598 -54.2,0 -78.63,39.903 -78.63,73.282 0,39.472 32.78,73.691 79.06,73.691 22.49,0 41.77,-7.762 51.2,-11.758 v -22.039" /><path
             id="path974"
             style="fill:#ffffff;fill-opacity:1;fill-rule:nonzero;stroke:none;stroke-width:2.45715"
             d="m 2606.55,176.883 h -21 v 143.195 h 21 V 176.883" /><path
             id="path976"
             style="fill:#ffffff;fill-opacity:1;fill-rule:nonzero;stroke:none;stroke-width:2.45715"
             d="m 2749.85,361.434 -34.43,-31.485 h -10.92 l 15.33,31.485 z m -85.87,-113.379 c 0,-32.539 25.62,-53.953 55.64,-53.953 15.33,0 31.91,6.296 41.78,17 9.04,9.875 14.28,25.41 14.28,37.793 0,23.73 -18.06,53.75 -55.43,53.75 -40.11,0 -56.27,-30.645 -56.27,-54.59 z m 132.7,0.636 c 0,-41.152 -31.5,-73.703 -78.31,-73.703 -44.95,0 -75.59,33.184 -75.59,73.067 0,38.008 27.71,73.906 76.63,73.906 47.67,0 77.27,-34.844 77.27,-73.27" /><path
             id="path978"
             style="fill:#ffffff;fill-opacity:1;fill-rule:nonzero;stroke:none;stroke-width:2.45715"
             d="m 2961.63,176.883 h -18 l -97.7,110.234 V 176.883 h -19.7 v 143.195 h 16.92 l 98.55,-111.066 v 111.066 h 19.93 V 176.883" /></g><text
           style="font-style:normal;font-weight:normal;font-size:10.5833px;line-height:1.25;font-family:sans-serif;white-space:pre;shape-inside:url(#rect867);display:inline;fill:#000000;fill-opacity:1;stroke:none"
           id="text865"
           xml:space="preserve" /><text
           id="text873"
           y="11.369067"
           x="44.049141"
           style="font-style:normal;font-weight:normal;font-size:2.82222px;line-height:1.25;font-family:sans-serif;fill:#ffffff;fill-opacity:1;stroke:none;stroke-width:0.264583"
           xml:space="preserve"><tspan
             style="font-style:normal;font-variant:normal;font-weight:normal;font-stretch:normal;font-size:2.82222px;font-family:'Gill Sans';-inkscape-font-specification:'Gill Sans';fill:#ffffff;stroke-width:0.264583"
             y="11.369067"
             x="44.049141"
             id="tspan871"
             sodipodi:role="line">Unidad de Protección</tspan></text><path
           style="opacity:1;fill:#ffffff;stroke:#ffffff;stroke-width:0.264583px;stroke-linecap:butt;stroke-linejoin:miter;stroke-opacity:1"
           d="m 42.243627,1.0076121 c 0,11.8394429 0,11.8394429 0,11.8394429"
           id="path913" /><text
           xml:space="preserve"
           style="font-style:normal;font-weight:normal;font-size:3.52778px;line-height:1.25;font-family:sans-serif;fill:#ffffff;fill-opacity:1;stroke:none;stroke-width:0.264583"
           x="44.301441"
           y="7.8688283"
           id="text873-9"><tspan
             sodipodi:role="line"
             id="tspan871-3"
             x="44.301441"
             y="7.8688283"
             style="font-style:normal;font-variant:normal;font-weight:normal;font-stretch:normal;font-size:3.52778px;font-family:'Gill Sans';-inkscape-font-specification:'Gill Sans';fill:#ffffff;stroke-width:0.264583">MÉXICO</tspan></text></g></g><rect
       style="opacity:1;fill:#0033a0;fill-opacity:1;stroke:#ffffff;stroke-width:0.265;stroke-opacity:1"
       id="rect604-4"
       width="217.08597"
       height="12.930763"
       x="-0.39666668"
       y="266.60132"
       inkscape:label="rect604-4" /><text
       style="font-style:normal;font-weight:normal;font-size:10.5833px;line-height:1.25;font-family:sans-serif;white-space:pre;shape-inside:url(#rect853);display:inline;fill:#000000;fill-opacity:1;stroke:none"
       id="text851"
       xml:space="preserve" /><rect
       style="opacity:1;fill:#0033a0;fill-opacity:1;stroke:#ffffff;stroke-width:0.265"
       id="rect604"
       width="216.59619"
       height="13.113932"
       x="-0.27405941"
       y="-0.27043584" /><g
       id="g2257"
       transform="matrix(0.4430582,0,0,0.31726057,-28.240185,-30.682127)"
       style="stroke-width:2.66724"><path
         style="opacity:1;fill:#ffffff;stroke:#ffffff;stroke-width:0.705705px;stroke-linecap:butt;stroke-linejoin:miter;stroke-opacity:1"
         d="m 136.79567,103.90755 c 0,23.3602 0,23.3602 0,23.3602"
         id="path913-5" /><text
         xml:space="preserve"
         transform="matrix(0.47194713,0,0,0.65787281,84.66415,99.545139)"
         id="text1296"
         style="font-style:normal;font-variant:normal;font-weight:normal;font-stretch:normal;font-size:13.3333px;line-height:1.25;font-family:'Gill Sans';-inkscape-font-specification:'Gill Sans';white-space:pre;shape-inside:url(#rect1298);fill:#ffffff;stroke-width:3.37807"><tspan
           x="122.46094"
           y="20.834234"
           id="tspan737"><tspan
             style="stroke-width:2.66724"
             id="tspan735">GLOBAL DATA
</tspan></tspan><tspan
           x="122.46094"
           y="37.500859"
           id="tspan741"><tspan
             style="stroke-width:2.66724"
             id="tspan739">INSTITUTE</tspan></tspan></text></g><rect
       style="display:inline;fill:#d9e0f1;fill-opacity:1;stroke:#ffffff;stroke-width:0.265"
       id="rect604-7"
       width="152.28793"
       height="12.928668"
       x="65.125687"
       y="-0.14318156" /><text
       xml:space="preserve"
       transform="scale(0.26458333)"
       id="text2440"
       style="font-style:normal;font-weight:normal;font-size:40px;line-height:1.25;font-family:sans-serif;white-space:pre;shape-inside:url(#rect2442);display:inline;fill:#000000;fill-opacity:1;stroke:none" /><text
       xml:space="preserve"
       transform="scale(0.26458333)"
       id="text7949"
       style="font-style:normal;font-weight:normal;font-size:40px;line-height:1.25;font-family:sans-serif;white-space:pre;shape-inside:url(#rect7951);display:inline;fill:#000000;fill-opacity:1;stroke:none" /><text
       xml:space="preserve"
       style="font-style:normal;font-weight:normal;font-size:10.5833px;line-height:1.25;font-family:sans-serif;fill:#000000;fill-opacity:1;stroke:none;stroke-width:0.264583"
       x="151.45116"
       y="88.954742"
       id="text7957"><tspan
         sodipodi:role="line"
         id="tspan7955"
         style="stroke-width:0.264583"
         x="151.45116"
         y="88.954742" /></text><text
       xml:space="preserve"
       transform="scale(0.26458333)"
       id="text8049"
       style="font-style:normal;font-weight:normal;font-size:40px;line-height:1.25;font-family:sans-serif;white-space:pre;shape-inside:url(#rect8051);display:inline;fill:#000000;fill-opacity:1;stroke:none" /><text
       xml:space="preserve"
       transform="scale(0.26458333)"
       id="text9335"
       style="font-style:normal;font-variant:normal;font-weight:normal;font-stretch:normal;font-size:16px;line-height:1.25;font-family:'Gill Sans';-inkscape-font-specification:'Gill Sans';white-space:pre;shape-inside:url(#rect9337);display:inline;fill:#000000;fill-opacity:1;stroke:none"><tspan
         x="47.886719"
         y="119.63901"
         id="tspan743"> </tspan></text><text
       xml:space="preserve"
       transform="scale(0.26458333)"
       id="text9419"
       style="font-style:normal;font-weight:normal;font-size:40px;line-height:1.25;font-family:sans-serif;white-space:pre;shape-inside:url(#rect9421);display:inline;fill:#000000;fill-opacity:1;stroke:none" /><text
       xml:space="preserve"
       transform="scale(0.26458333)"
       id="text9435"
       style="font-style:normal;font-weight:normal;font-size:16px;line-height:1.25;font-family:sans-serif;white-space:pre;shape-inside:url(#rect9437);display:inline;fill:#000000;fill-opacity:1;stroke:none" /><text
       xml:space="preserve"
       transform="scale(0.26458333)"
       id="text27328"
       style="font-size:16px;line-height:1.25;font-family:sans-serif;white-space:pre;shape-inside:url(#rect27330);display:inline" /><text
       xml:space="preserve"
       transform="scale(0.26458333)"
       id="text37612"
       style="font-size:16px;line-height:1.25;font-family:sans-serif;white-space:pre;shape-inside:url(#rect37614);display:inline" /><path
       style="fill:#0033a0;fill-opacity:1;stroke:#000000;stroke-width:0;stroke-linecap:butt;stroke-linejoin:miter;stroke-dasharray:none;stroke-opacity:1"
       d="M 64.923507,-0.04668973 101.57724,12.658479 64.824039,12.708698 Z"
       id="path4253" /><rect
       style="fill:#0033a0;stroke:#ffffff;stroke-width:0"
       id="rect1834"
       width="123.78551"
       height="1.9968935"
       x="92.588326"
       y="10.6518" /><g
       id="g1126"
       transform="matrix(0.06253049,0,0,0.06626066,7.6729021,2.0937329)"
       style="stroke-width:4.11044"
       inkscape:label="IOM_logo"
       sodipodi:insensitive="true"><path
         style="fill:#ffffff;fill-opacity:1;fill-rule:nonzero;stroke:none;stroke-width:4.11044"
         d="M 147.59891,1.1199917 H 135.039 V 88.479345 h 12.55991 z"
         id="path1064" /><path
         style="fill:#ffffff;fill-opacity:1;fill-rule:nonzero;stroke:none;stroke-width:4.11044"
         d="m 211.59843,77.919423 c -18.31986,0 -33.91975,-13.039904 -33.91975,-32.879757 0,-14.559892 9.83993,-33.279753 34.31975,-33.279753 22.71983,0 33.75975,18.319864 33.75975,32.799757 0,7.519944 -3.19998,17.039874 -8.71994,23.039829 -5.99995,6.479952 -16.07988,10.319924 -25.43981,10.319924 z M 258.55808,44.639669 C 258.55808,21.279842 240.47822,0 211.43843,0 c -29.83978,0 -46.71965,21.919838 -46.71965,45.039666 0,24.31982 18.71986,44.55967 46.07966,44.55967 28.55979,0 47.75964,-19.839853 47.75964,-44.959667 z"
         id="path1066" /><path
         style="fill:#ffffff;fill-opacity:1;fill-rule:nonzero;stroke:none;stroke-width:4.11044"
         d="M 345.11744,1.1199917 316.15766,36.959726 287.11787,1.1199917 H 275.35796 V 88.479345 h 12.47991 V 20.479848 l 27.1998,33.75975 h 2.23998 l 26.8798,-33.75975 v 67.999497 h 12.55991 V 1.1199917 Z"
         id="path1068" /><path
         style="fill:#ffffff;fill-opacity:1;fill-rule:nonzero;stroke:none;stroke-width:4.11044"
         d="m 22.159836,121.5191 c 0,2.87998 -0.239998,4.39997 -0.799994,5.43996 -0.799994,1.35999 -2.879979,3.83997 -7.679943,3.83997 -3.439975,0 -5.3599606,-1.19999 -6.6399511,-2.47998 -1.5199888,-1.43999 -1.8399864,-2.95998 -1.8399864,-6.79995 V 105.03922 H 0.87999348 v 16.47988 c 0,1.99999 0,5.35996 1.67998752,7.91994 2.3199829,3.67997 6.9599485,5.03996 11.119918,5.03996 3.439974,0 6.71995,-0.79999 9.35993,-3.11997 3.359975,-2.95998 3.359975,-7.03995 3.359975,-9.83993 v -16.47988 h -4.239968 z"
         id="path1070" /><path
         style="fill:#ffffff;fill-opacity:1;fill-rule:nonzero;stroke:none;stroke-width:4.11044"
         d="M 61.119547,127.59905 41.119695,105.03922 h -3.439974 v 29.03979 h 3.99997 v -22.39984 l 19.839853,22.39984 h 3.679973 v -29.03979 h -4.07997 z"
         id="path1072" /><path
         style="fill:#ffffff;fill-opacity:1;fill-rule:nonzero;stroke:none;stroke-width:4.11044"
         d="m 106.15921,116.95913 -9.919923,-11.91991 h -3.99997 v 29.03979 h 4.239968 v -22.63984 l 9.279935,11.27992 h 0.71999 l 9.19993,-11.27992 v 22.63984 h 4.23997 v -29.03979 h -3.91997 z"
         id="path1074" /><path
         style="fill:#ffffff;fill-opacity:1;fill-rule:nonzero;stroke:none;stroke-width:4.11044"
         d="m 131.75902,134.07901 h 4.23997 v -29.03979 h -4.23997 z"
         id="path1076" /><path
         style="fill:#ffffff;fill-opacity:1;fill-rule:nonzero;stroke:none;stroke-width:4.11044"
         d="m 162.3988,123.51909 h 5.67995 v 5.99995 c -2.79997,0.87999 -4.31996,1.27999 -6.47995,1.27999 -7.19994,0 -11.91991,-4.79996 -11.91991,-11.19992 0,-6.87994 5.59996,-11.27991 11.51992,-11.27991 1.67998,0 5.67995,0.24 10.55992,3.03998 v -4.23997 c -3.19998,-1.35999 -6.23996,-2.47999 -10.47992,-2.47999 -10.15993,0 -15.99989,7.51995 -15.99989,15.19989 0,6.55995 4.71997,14.63989 16.23988,14.63989 4.95997,0 8.55994,-1.35999 10.87992,-2.39998 v -12.23991 h -9.99992 z"
         id="path1078" /><path
         style="fill:#ffffff;fill-opacity:1;fill-rule:nonzero;stroke:none;stroke-width:4.11044"
         d="m 193.75856,117.27913 c -1.19999,0.48 -3.51997,0.48 -4.15996,0.48 h -1.67999 v -9.19993 h 1.35999 c 2.55998,0 3.91997,0.15999 5.03996,0.63999 1.35999,0.64 2.23998,2.23998 2.23998,3.91997 0,1.59999 -0.79999,3.43998 -2.79998,4.15997 z m 2.15999,3.03998 c 3.27997,-1.27999 4.95996,-3.83997 4.95996,-7.19995 0,-2.95998 -1.43999,-5.83995 -4.63996,-7.19994 -1.83999,-0.8 -3.67998,-0.88 -5.03997,-0.88 h -7.43994 v 29.03979 h 4.15997 V 121.4391 h 1.11999 c 2.07998,0 3.51997,0 6.39995,3.67997 0.96,1.19999 5.11996,7.59995 6.15996,8.95994 h 5.03996 c -2.07999,-2.79998 -2.79998,-3.75998 -4.07997,-5.75996 -2.23998,-3.59997 -3.91997,-6.31995 -6.63995,-7.99994"
         id="path1080" /><path
         style="fill:#ffffff;fill-opacity:1;fill-rule:nonzero;stroke:none;stroke-width:4.11044"
         d="m 220.95836,121.7591 4.47997,-10.47992 4.79996,10.47992 z m 3.03998,-16.87988 -12.7999,29.19979 h 4.39996 l 3.75998,-8.55994 h 12.5599 l 3.99997,8.55994 h 4.31997 l -13.2799,-29.19979 z"
         id="path1082" /><path
         style="fill:#ffffff;fill-opacity:1;fill-rule:nonzero;stroke:none;stroke-width:4.11044"
         d="m 241.83821,108.71919 h 10.15992 v 25.35982 h 4.31997 v -25.35982 h 10.31992 v -3.67997 h -24.79981 z"
         id="path1084" /><path
         style="fill:#ffffff;fill-opacity:1;fill-rule:nonzero;stroke:none;stroke-width:4.11044"
         d="m 275.99796,134.07901 h 4.23996 v -29.03979 h -4.23996 z"
         id="path1086" /><path
         style="fill:#ffffff;fill-opacity:1;fill-rule:nonzero;stroke:none;stroke-width:4.11044"
         d="m 313.67768,127.11906 c -2.07999,2.23998 -5.43996,3.51997 -8.63994,3.51997 -6.23995,0 -11.51991,-4.39997 -11.51991,-10.95992 0,-4.87996 3.35997,-11.11991 11.59991,-11.11991 7.75994,0 11.51991,6.07995 11.51991,10.87992 0,2.55998 -1.11999,5.67995 -2.95997,7.67994 z m -8.71994,-22.47984 c -10.07992,0 -15.83988,7.27995 -15.83988,15.03989 0,8.07994 6.31995,14.79989 15.67988,14.79989 9.67993,0 16.15988,-6.63995 16.15988,-14.95989 0,-7.83994 -6.07995,-14.87989 -15.99988,-14.87989 z"
         id="path1088" /><path
         style="fill:#ffffff;fill-opacity:1;fill-rule:nonzero;stroke:none;stroke-width:4.11044"
         d="m 352.63739,127.59905 -19.99985,-22.55983 h -3.43998 v 29.03979 h 3.99997 v -22.39984 l 19.83985,22.39984 h 3.67998 v -29.03979 h -4.07997 z"
         id="path1090" /><path
         style="fill:#ffffff;fill-opacity:1;fill-rule:nonzero;stroke:none;stroke-width:4.11044"
         d="m 45.759661,36.559729 c 1.039992,0 1.759987,-0.799994 1.759987,-1.759987 0,-0.959993 -0.719995,-1.759987 -1.759987,-1.759987 -0.959993,0 -1.759987,0.799994 -1.759987,1.759987 0,0.959993 0.799994,1.759987 1.759987,1.759987 z"
         id="path1092" /><path
         style="fill:#ffffff;fill-opacity:1;fill-rule:nonzero;stroke:none;stroke-width:4.11044"
         d="m 39.039711,47.19965 c 0.159999,0.08 0.239998,0.159999 0.399997,0.159999 0.319997,0 0.559996,-0.159999 0.719995,-0.479996 l 3.199976,-7.439945 0.159999,7.279946 -1.119992,9.199932 c -0.08,0.319997 0.159999,0.719994 0.479996,0.799994 0.08,0.08 0.159999,0.08 0.239999,0.08 0.399997,0 0.719994,-0.319997 0.799994,-0.719994 l 1.119991,-8.719936 h 1.519989 l 1.119992,8.719936 c 0.08,0.399997 0.399997,0.719994 0.799994,0.719994 0.08,0 0.159999,0 0.239998,-0.08 0.319998,-0.08 0.559996,-0.479997 0.479997,-0.799994 l -1.199992,-9.199932 0.239999,-7.279946 3.199976,7.439945 c 0,0 0,0 0,0 0,0.08 0,0.08 0,0.159999 0,0 0.08,0 0.08,0 0,0 0,0.08 0,0.08 0.08,0 0.08,0 0.08,0 0,0.08 0.08,0.08 0.08,0.08 0,0 0,0 0,0 0.08,0.08 0.08,0.08 0.159999,0.08 0,0 0,0 0,0 0,0 0.08,0 0.08,0.08 0,0 0.08,0 0.08,0 0,0 0.08,0 0.08,0 v 0 h 0.639995 l -0.959992,5.199962 c -0.08,0.319997 0,0.719994 0.239998,1.039992 0.159999,0.159999 0.319997,0.319998 0.559996,0.319998 v 2.239983 c 0,0.319998 0.239998,0.639995 0.639995,0.639995 0.319998,0 0.639995,-0.319997 0.639995,-0.639995 v -2.159984 0 c 0,0 0,0 0.08,0 h 0.399997 0.399997 v 0 c 0,0 0,0 0.08,0 v 0 2.159984 c 0,0.319998 0.239998,0.639995 0.639995,0.639995 0.319998,0 0.639996,-0.319997 0.639996,-0.639995 v -2.239983 c 0.159998,-0.08 0.399997,-0.159999 0.559995,-0.319998 0.239999,-0.319998 0.319998,-0.719995 0.239999,-1.039992 l -1.039993,-5.199962 h 0.639996 v 0 c 0.08,0 0.08,0 0.159998,0 0,0 0,0 0,0 0.08,-0.08 0.08,-0.08 0.08,-0.08 0.08,0 0.08,0 0.08,0 0,0 0.08,0 0.08,-0.08 0,0 0.08,0 0.08,0 0,0 0,0 0.08,-0.08 0,0 0,0 0,0 0,0 0.08,-0.08 0.08,-0.08 0,0 0,0 0,0 0,-0.08 0.08,-0.08 0.08,-0.159999 0,0 0,0 0,0 l 3.279976,-7.759943 0.639995,3.199977 c 0.08,0.479996 0.08,1.039992 -0.08,1.519988 L 58.07957,56.799579 h 4.159969 1.039992 4.159969 L 64.399523,43.839675 c -0.159999,-0.479996 -0.159999,-1.039992 -0.08,-1.519988 l 0.719994,-3.199977 2.479982,6.239954 c 0.159999,0.319998 0.399997,0.479996 0.719995,0.479996 0.08,0 0.239998,0 0.319997,-0.08 0.399997,-0.159999 0.559996,-0.559996 0.399997,-0.959993 L 66.15951,37.83972 c -0.159999,-0.319998 -0.399997,-0.479997 -0.719995,-0.479997 h -0.08 -1.199991 -0.879994 -1.039992 -0.879994 -1.27999 v 0 c -0.319998,0 -0.559996,0.159999 -0.719995,0.399997 l -3.359975,8.07994 H 52.63961 l -3.439974,-8.07994 c -0.08,-0.239998 -0.399997,-0.399997 -0.719995,-0.399997 h -2.71998 -2.71998 c -0.319997,0 -0.559996,0.159999 -0.719994,0.399997 l -3.519974,8.479937 c -0.159999,0.399998 -0.08,0.799995 0.239998,0.959993 z"
         id="path1094" /><path
         style="fill:#ffffff;fill-opacity:1;fill-rule:nonzero;stroke:none;stroke-width:4.11044"
         d="m 62.719535,36.559729 c 0.959993,0 1.759987,-0.799994 1.759987,-1.759987 0,-0.959993 -0.799994,-1.759987 -1.759987,-1.759987 -0.959992,0 -1.759987,0.799994 -1.759987,1.759987 0,0.959993 0.799995,1.759987 1.759987,1.759987 z"
         id="path1096" /><path
         style="fill:#ffffff;fill-opacity:1;fill-rule:nonzero;stroke:none;stroke-width:4.11044"
         d="m 54.319598,45.439663 c 0.719994,0 1.27999,-0.639995 1.27999,-1.35999 0,-0.719994 -0.559996,-1.27999 -1.27999,-1.27999 -0.719995,0 -1.35999,0.559996 -1.35999,1.27999 0,0.719995 0.639995,1.35999 1.35999,1.35999 z"
         id="path1098" /><path
         style="fill:#ffffff;fill-opacity:1;fill-rule:nonzero;stroke:none;stroke-width:4.11044"
         d="m 62.399538,69.199487 c -3.199977,0.159999 -6.239954,0.879994 -9.039933,2.079985 -4.159969,-1.839986 -8.07994,-4.959963 -11.039918,-8.879934 h 20.079851 z m 0,13.119903 C 56.879579,82.079392 51.679617,80.559403 47.039652,77.999422 51.039622,74.23945 56.399582,71.839468 62.399538,71.51947 Z M 31.679765,62.399538 h 7.759943 c 2.879979,4.399967 6.799949,7.919941 11.039918,10.239924 -1.999985,1.119992 -3.919971,2.559981 -5.519959,4.07997 C 39.439708,73.279457 34.879742,68.319494 31.679765,62.399538 Z M 26.9598,46.719654 h 7.519945 c 0,0.08 0,0.159999 0,0.239998 0,4.479967 1.27999,8.799935 3.359975,12.719906 H 30.319775 C 28.559788,55.679588 27.359797,51.35962 26.9598,46.719654 Z m -10.239924,-2.71998 c 0,-0.319998 0,-0.799994 0,-1.119992 0,-4.559966 1.35999,-8.959933 3.599973,-12.799905 h 46.879653 c 2.239984,3.839972 3.679973,8.239939 3.679973,12.799905 0,0.08 0,0.08 0,0.159999 h -0.08 v 2.71998 h 20.15985 c 0,0.319998 0.08,0.879994 0.08,1.199991 0,4.559966 -1.43999,8.879934 -3.679973,12.719906 H 40.5597 c -2.319983,-3.839972 -3.679973,-8.15994 -3.679973,-12.719906 0,-0.08 0,-0.159999 0,-0.239998 v 0 l 0.08,-2.71998 z m -10.5599216,0 C 6.5599514,39.11971 7.7599425,34.399745 9.6799283,30.079777 H 17.59987 c -1.999986,3.919971 -3.279976,8.319939 -3.279976,12.799905 0,0.239999 0,0.799994 0,1.119992 z M 24.639817,12.879905 c 1.679988,1.679987 3.519974,3.119976 5.679958,4.239968 -4.239968,2.319983 -8.159939,5.919956 -11.039918,10.319924 H 11.039918 C 14.319894,21.359842 18.95986,16.399879 24.639817,12.879905 Z m 17.999867,7.759942 v 6.79995 H 22.159836 c 2.959978,-3.919971 6.879949,-7.039948 10.959919,-8.879934 2.959978,1.199991 6.159954,1.919985 9.519929,2.079984 z m 0,-13.1999021 V 18.319864 C 36.39973,18.079866 30.799772,15.519885 26.719802,11.679913 31.519767,9.039933 36.879727,7.5999437 42.639684,7.4399449 Z m 2.71998,13.1199031 c 3.199976,-0.159999 6.239954,-0.879994 9.039933,-1.999985 4.159969,1.839986 7.999941,4.959963 10.959919,8.879934 H 45.359664 Z m 0,-13.1199031 c 5.519959,0.3199976 10.719921,1.8399864 15.279887,4.3999671 -3.999971,3.679973 -9.359931,6.079955 -15.279887,6.479952 z M 75.999437,27.439797 h -7.679943 c -2.959978,-4.399968 -6.879949,-7.999941 -11.039918,-10.319924 1.999985,-1.119992 3.839971,-2.479981 5.519959,-4.07997 5.43996,3.519974 10.079925,8.479938 13.199902,14.399894 z m 4.799964,15.599884 h -7.599943 v -0.159999 c 0,-4.479966 -1.199991,-8.879934 -3.279976,-12.799905 h 7.439945 c 1.839986,3.999971 2.959978,8.399938 3.439974,12.959904 z m 20.719849,2.71998 c -0.32,4.959963 -1.59999,9.679928 -3.519976,13.919897 h -7.919941 c 2.079984,-3.919971 3.279975,-8.239939 3.279975,-12.719906 0,-0.239998 0,-0.799994 0,-1.199991 z M 83.119384,76.95943 c -1.679987,-1.679988 -3.599973,-3.119977 -5.679958,-4.319968 4.15997,-2.319983 8.079941,-5.839957 11.039919,-10.239924 h 8.239939 c -3.279976,5.999955 -7.999941,11.039918 -13.5999,14.559892 z M 65.119518,69.199487 v -6.799949 h 20.399849 c -2.959979,3.919971 -6.79995,7.039948 -10.959919,8.879934 -2.879979,-1.199991 -6.079955,-1.919986 -9.43993,-2.079985 z m 0,13.199903 V 71.439471 c 6.159954,0.319997 11.759913,2.799979 15.919882,6.71995 -4.799965,2.559981 -10.239924,4.07997 -15.919882,4.239969 z M 107.6792,42.239687 c 0,-13.839897 -6.31995,-29.359782 -16.639874,-40.8796971 h -9.279932 c 2.479982,2.159984 5.839957,6.079955 5.839957,6.079955 8.879934,9.9199261 14.079899,23.2798271 14.079899,35.1997391 0,0.159999 0,0.239998 -0.08,0.399997 H 86.879356 C 84.639373,19.759854 66.079511,1.3599899 43.519678,1.3599899 19.519855,1.3599899 0,21.999837 0,47.519648 0,61.439545 6.3199532,76.95943 16.719876,88.479345 h 9.199932 C 23.519826,86.239361 20.159851,82.39939 20.159851,82.39939 11.279916,72.479463 6.079955,59.119562 6.079955,47.19965 c 0,-0.159998 0,-0.319997 0,-0.479996 h 14.719891 c 2.239983,23.359827 20.799846,41.759691 43.359679,41.759691 24.079821,0 43.519675,-20.719847 43.519675,-46.239658 z"
         id="path1100" /></g></g></svg>
